<?xml version="1.0" encoding="utf-8" standalone="no"?>
<!DOCTYPE svg PUBLIC "-//W3C//DTD SVG 1.1//EN"
  "http://www.w3.org/Graphics/SVG/1.1/DTD/svg11.dtd">
<svg xmlns:xlink="http://www.w3.org/1999/xlink" width="490.1616pt" height="302.93712pt" viewBox="0 0 490.1616 302.93712" xmlns="http://www.w3.org/2000/svg" version="1.1">
 <metadata>
  <rdf:RDF xmlns:dc="http://purl.org/dc/elements/1.1/" xmlns:cc="http://creativecommons.org/ns#" xmlns:rdf="http://www.w3.org/1999/02/22-rdf-syntax-ns#">
   <cc:Work>
    <dc:type rdf:resource="http://purl.org/dc/dcmitype/StillImage"/>
    <dc:date>2024-03-14T00:07:07.882386</dc:date>
    <dc:format>image/svg+xml</dc:format>
    <dc:creator>
     <cc:Agent>
      <dc:title>Matplotlib v3.7.1, https://matplotlib.org/</dc:title>
     </cc:Agent>
    </dc:creator>
   </cc:Work>
  </rdf:RDF>
 </metadata>
 <defs>
  <style type="text/css">*{stroke-linejoin: round; stroke-linecap: butt}</style>
 </defs>
 <g id="figure_1">
  <g id="patch_1">
   <path d="M 0 302.93712 
L 490.1616 302.93712 
L 490.1616 0 
L 0 0 
z
" style="fill: #ffffff"/>
  </g>
  <g id="axes_1">
   <g id="patch_2">
    <path d="M 150.202592 269.614037 
L 352.213048 269.614037 
L 352.213048 36.352454 
L 150.202592 36.352454 
z
" style="fill: #ffffff"/>
   </g>
   <g id="patch_3">
    <path d="M 159.384885 259.011238 
L 343.030755 259.011238 
L 343.030755 46.955254 
L 159.384885 46.955254 
L 159.384885 259.011238 
z
" style="fill: none; stroke-dasharray: 3.7,1.6; stroke-dashoffset: 0; stroke: #000000; stroke-linejoin: miter"/>
   </g>
   <g id="matplotlib.axis_1">
    <g id="xtick_1">
     <g id="line2d_1">
      <defs>
       <path id="mcd56bc6447" d="M 0 0 
L 0 3.5 
" style="stroke: #000000; stroke-width: 0.8"/>
      </defs>
      <g>
       <use xlink:href="#mcd56bc6447" x="188.98482" y="269.614037" style="stroke: #000000; stroke-width: 0.8"/>
      </g>
     </g>
     <g id="text_1">
      <!-- −5 -->
      <g transform="translate(181.613726 284.212474) scale(0.1 -0.1)">
       <defs>
        <path id="DejaVuSans-2212" d="M 678 2272 
L 4684 2272 
L 4684 1741 
L 678 1741 
L 678 2272 
z
" transform="scale(0.015625)"/>
        <path id="DejaVuSans-35" d="M 691 4666 
L 3169 4666 
L 3169 4134 
L 1269 4134 
L 1269 2991 
Q 1406 3038 1543 3061 
Q 1681 3084 1819 3084 
Q 2600 3084 3056 2656 
Q 3513 2228 3513 1497 
Q 3513 744 3044 326 
Q 2575 -91 1722 -91 
Q 1428 -91 1123 -41 
Q 819 9 494 109 
L 494 744 
Q 775 591 1075 516 
Q 1375 441 1709 441 
Q 2250 441 2565 725 
Q 2881 1009 2881 1497 
Q 2881 1984 2565 2268 
Q 2250 2553 1709 2553 
Q 1456 2553 1204 2497 
Q 953 2441 691 2322 
L 691 4666 
z
" transform="scale(0.015625)"/>
       </defs>
       <use xlink:href="#DejaVuSans-2212"/>
       <use xlink:href="#DejaVuSans-35" x="83.789062"/>
      </g>
     </g>
    </g>
    <g id="xtick_2">
     <g id="line2d_2">
      <g>
       <use xlink:href="#mcd56bc6447" x="251.20782" y="269.614037" style="stroke: #000000; stroke-width: 0.8"/>
      </g>
     </g>
     <g id="text_2">
      <!-- 0 -->
      <g transform="translate(248.02657 284.212474) scale(0.1 -0.1)">
       <defs>
        <path id="DejaVuSans-30" d="M 2034 4250 
Q 1547 4250 1301 3770 
Q 1056 3291 1056 2328 
Q 1056 1369 1301 889 
Q 1547 409 2034 409 
Q 2525 409 2770 889 
Q 3016 1369 3016 2328 
Q 3016 3291 2770 3770 
Q 2525 4250 2034 4250 
z
M 2034 4750 
Q 2819 4750 3233 4129 
Q 3647 3509 3647 2328 
Q 3647 1150 3233 529 
Q 2819 -91 2034 -91 
Q 1250 -91 836 529 
Q 422 1150 422 2328 
Q 422 3509 836 4129 
Q 1250 4750 2034 4750 
z
" transform="scale(0.015625)"/>
       </defs>
       <use xlink:href="#DejaVuSans-30"/>
      </g>
     </g>
    </g>
    <g id="xtick_3">
     <g id="line2d_3">
      <g>
       <use xlink:href="#mcd56bc6447" x="313.43082" y="269.614037" style="stroke: #000000; stroke-width: 0.8"/>
      </g>
     </g>
     <g id="text_3">
      <!-- 5 -->
      <g transform="translate(310.24957 284.212474) scale(0.1 -0.1)">
       <use xlink:href="#DejaVuSans-35"/>
      </g>
     </g>
    </g>
    <g id="text_4">
     <!-- x ($\AA$) -->
     <g transform="translate(240.49782 298.050443) scale(0.09 -0.09)">
      <defs>
       <path id="DejaVuSans-78" d="M 3513 3500 
L 2247 1797 
L 3578 0 
L 2900 0 
L 1881 1375 
L 863 0 
L 184 0 
L 1544 1831 
L 300 3500 
L 978 3500 
L 1906 2253 
L 2834 3500 
L 3513 3500 
z
" transform="scale(0.015625)"/>
       <path id="DejaVuSans-20" transform="scale(0.015625)"/>
       <path id="DejaVuSans-28" d="M 1984 4856 
Q 1566 4138 1362 3434 
Q 1159 2731 1159 2009 
Q 1159 1288 1364 580 
Q 1569 -128 1984 -844 
L 1484 -844 
Q 1016 -109 783 600 
Q 550 1309 550 2009 
Q 550 2706 781 3412 
Q 1013 4119 1484 4856 
L 1984 4856 
z
" transform="scale(0.015625)"/>
       <path id="DejaVuSans-Oblique-c5" d="M 3188 5081 
Q 3188 5278 3048 5417 
Q 2909 5556 2713 5556 
Q 2513 5556 2377 5420 
Q 2241 5284 2241 5081 
Q 2241 4884 2377 4746 
Q 2513 4609 2713 4609 
Q 2909 4609 3048 4746 
Q 3188 4884 3188 5081 
z
M 2203 4397 
Q 2034 4513 1945 4689 
Q 1856 4866 1856 5081 
Q 1856 5438 2106 5689 
Q 2356 5941 2713 5941 
Q 3069 5941 3320 5689 
Q 3572 5438 3572 5081 
Q 3572 4834 3458 4643 
Q 3344 4453 3128 4341 
L 3938 0 
L 3278 0 
L 3084 1197 
L 984 1197 
L 325 0 
L -341 0 
L 2203 4397 
z
M 2584 4044 
L 1275 1722 
L 2988 1722 
L 2584 4044 
z
" transform="scale(0.015625)"/>
       <path id="DejaVuSans-29" d="M 513 4856 
L 1013 4856 
Q 1481 4119 1714 3412 
Q 1947 2706 1947 2009 
Q 1947 1309 1714 600 
Q 1481 -109 1013 -844 
L 513 -844 
Q 928 -128 1133 580 
Q 1338 1288 1338 2009 
Q 1338 2731 1133 3434 
Q 928 4138 513 4856 
z
" transform="scale(0.015625)"/>
      </defs>
      <use xlink:href="#DejaVuSans-78" transform="translate(0 0.171875)"/>
      <use xlink:href="#DejaVuSans-20" transform="translate(59.179688 0.171875)"/>
      <use xlink:href="#DejaVuSans-28" transform="translate(90.966797 0.171875)"/>
      <use xlink:href="#DejaVuSans-Oblique-c5" transform="translate(129.980469 0.171875)"/>
      <use xlink:href="#DejaVuSans-29" transform="translate(198.388672 0.171875)"/>
     </g>
    </g>
   </g>
   <g id="matplotlib.axis_2">
    <g id="ytick_1">
     <g id="line2d_4">
      <defs>
       <path id="m9594a90f09" d="M 0 0 
L -3.5 0 
" style="stroke: #000000; stroke-width: 0.8"/>
      </defs>
      <g>
       <use xlink:href="#m9594a90f09" x="150.202592" y="246.317746" style="stroke: #000000; stroke-width: 0.8"/>
      </g>
     </g>
     <g id="text_5">
      <!-- −7.5 -->
      <g transform="translate(118.919779 250.116964) scale(0.1 -0.1)">
       <defs>
        <path id="DejaVuSans-37" d="M 525 4666 
L 3525 4666 
L 3525 4397 
L 1831 0 
L 1172 0 
L 2766 4134 
L 525 4134 
L 525 4666 
z
" transform="scale(0.015625)"/>
        <path id="DejaVuSans-2e" d="M 684 794 
L 1344 794 
L 1344 0 
L 684 0 
L 684 794 
z
" transform="scale(0.015625)"/>
       </defs>
       <use xlink:href="#DejaVuSans-2212"/>
       <use xlink:href="#DejaVuSans-37" x="83.789062"/>
       <use xlink:href="#DejaVuSans-2e" x="147.412109"/>
       <use xlink:href="#DejaVuSans-35" x="179.199219"/>
      </g>
     </g>
    </g>
    <g id="ytick_2">
     <g id="line2d_5">
      <g>
       <use xlink:href="#m9594a90f09" x="150.202592" y="215.206246" style="stroke: #000000; stroke-width: 0.8"/>
      </g>
     </g>
     <g id="text_6">
      <!-- −5.0 -->
      <g transform="translate(118.919779 219.005464) scale(0.1 -0.1)">
       <use xlink:href="#DejaVuSans-2212"/>
       <use xlink:href="#DejaVuSans-35" x="83.789062"/>
       <use xlink:href="#DejaVuSans-2e" x="147.412109"/>
       <use xlink:href="#DejaVuSans-30" x="179.199219"/>
      </g>
     </g>
    </g>
    <g id="ytick_3">
     <g id="line2d_6">
      <g>
       <use xlink:href="#m9594a90f09" x="150.202592" y="184.094746" style="stroke: #000000; stroke-width: 0.8"/>
      </g>
     </g>
     <g id="text_7">
      <!-- −2.5 -->
      <g transform="translate(118.919779 187.893964) scale(0.1 -0.1)">
       <defs>
        <path id="DejaVuSans-32" d="M 1228 531 
L 3431 531 
L 3431 0 
L 469 0 
L 469 531 
Q 828 903 1448 1529 
Q 2069 2156 2228 2338 
Q 2531 2678 2651 2914 
Q 2772 3150 2772 3378 
Q 2772 3750 2511 3984 
Q 2250 4219 1831 4219 
Q 1534 4219 1204 4116 
Q 875 4013 500 3803 
L 500 4441 
Q 881 4594 1212 4672 
Q 1544 4750 1819 4750 
Q 2544 4750 2975 4387 
Q 3406 4025 3406 3419 
Q 3406 3131 3298 2873 
Q 3191 2616 2906 2266 
Q 2828 2175 2409 1742 
Q 1991 1309 1228 531 
z
" transform="scale(0.015625)"/>
       </defs>
       <use xlink:href="#DejaVuSans-2212"/>
       <use xlink:href="#DejaVuSans-32" x="83.789062"/>
       <use xlink:href="#DejaVuSans-2e" x="147.412109"/>
       <use xlink:href="#DejaVuSans-35" x="179.199219"/>
      </g>
     </g>
    </g>
    <g id="ytick_4">
     <g id="line2d_7">
      <g>
       <use xlink:href="#m9594a90f09" x="150.202592" y="152.983246" style="stroke: #000000; stroke-width: 0.8"/>
      </g>
     </g>
     <g id="text_8">
      <!-- 0.0 -->
      <g transform="translate(127.299467 156.782464) scale(0.1 -0.1)">
       <use xlink:href="#DejaVuSans-30"/>
       <use xlink:href="#DejaVuSans-2e" x="63.623047"/>
       <use xlink:href="#DejaVuSans-30" x="95.410156"/>
      </g>
     </g>
    </g>
    <g id="ytick_5">
     <g id="line2d_8">
      <g>
       <use xlink:href="#m9594a90f09" x="150.202592" y="121.871746" style="stroke: #000000; stroke-width: 0.8"/>
      </g>
     </g>
     <g id="text_9">
      <!-- 2.5 -->
      <g transform="translate(127.299467 125.670964) scale(0.1 -0.1)">
       <use xlink:href="#DejaVuSans-32"/>
       <use xlink:href="#DejaVuSans-2e" x="63.623047"/>
       <use xlink:href="#DejaVuSans-35" x="95.410156"/>
      </g>
     </g>
    </g>
    <g id="ytick_6">
     <g id="line2d_9">
      <g>
       <use xlink:href="#m9594a90f09" x="150.202592" y="90.760246" style="stroke: #000000; stroke-width: 0.8"/>
      </g>
     </g>
     <g id="text_10">
      <!-- 5.0 -->
      <g transform="translate(127.299467 94.559464) scale(0.1 -0.1)">
       <use xlink:href="#DejaVuSans-35"/>
       <use xlink:href="#DejaVuSans-2e" x="63.623047"/>
       <use xlink:href="#DejaVuSans-30" x="95.410156"/>
      </g>
     </g>
    </g>
    <g id="ytick_7">
     <g id="line2d_10">
      <g>
       <use xlink:href="#m9594a90f09" x="150.202592" y="59.648746" style="stroke: #000000; stroke-width: 0.8"/>
      </g>
     </g>
     <g id="text_11">
      <!-- 7.5 -->
      <g transform="translate(127.299467 63.447964) scale(0.1 -0.1)">
       <use xlink:href="#DejaVuSans-37"/>
       <use xlink:href="#DejaVuSans-2e" x="63.623047"/>
       <use xlink:href="#DejaVuSans-35" x="95.410156"/>
      </g>
     </g>
    </g>
    <g id="text_12">
     <!-- y ($\AA$) -->
     <g transform="translate(113.029779 163.693246) rotate(-90) scale(0.09 -0.09)">
      <defs>
       <path id="DejaVuSans-79" d="M 2059 -325 
Q 1816 -950 1584 -1140 
Q 1353 -1331 966 -1331 
L 506 -1331 
L 506 -850 
L 844 -850 
Q 1081 -850 1212 -737 
Q 1344 -625 1503 -206 
L 1606 56 
L 191 3500 
L 800 3500 
L 1894 763 
L 2988 3500 
L 3597 3500 
L 2059 -325 
z
" transform="scale(0.015625)"/>
      </defs>
      <use xlink:href="#DejaVuSans-79" transform="translate(0 0.171875)"/>
      <use xlink:href="#DejaVuSans-20" transform="translate(59.179688 0.171875)"/>
      <use xlink:href="#DejaVuSans-28" transform="translate(90.966797 0.171875)"/>
      <use xlink:href="#DejaVuSans-Oblique-c5" transform="translate(129.980469 0.171875)"/>
      <use xlink:href="#DejaVuSans-29" transform="translate(198.388672 0.171875)"/>
     </g>
    </g>
   </g>
   <g id="line2d_11">
    <defs>
     <path id="mb2ec83cfad" d="M 0 2 
C 0.530406 2 1.03916 1.789267 1.414214 1.414214 
C 1.789267 1.03916 2 0.530406 2 0 
C 2 -0.530406 1.789267 -1.03916 1.414214 -1.414214 
C 1.03916 -1.789267 0.530406 -2 0 -2 
C -0.530406 -2 -1.03916 -1.789267 -1.414214 -1.414214 
C -1.789267 -1.03916 -2 -0.530406 -2 0 
C -2 0.530406 -1.789267 1.03916 -1.414214 1.414214 
C -1.03916 1.789267 -0.530406 2 0 2 
z
" style="stroke: #1f77b4"/>
    </defs>
    <g clip-path="url(#p325d855c99)">
     <use xlink:href="#mb2ec83cfad" x="159.384885" y="82.297918" style="fill: #1f77b4; stroke: #1f77b4"/>
     <use xlink:href="#mb2ec83cfad" x="174.688708" y="55.79092" style="fill: #1f77b4; stroke: #1f77b4"/>
     <use xlink:href="#mb2ec83cfad" x="159.384885" y="135.311914" style="fill: #1f77b4; stroke: #1f77b4"/>
     <use xlink:href="#mb2ec83cfad" x="174.688708" y="108.804916" style="fill: #1f77b4; stroke: #1f77b4"/>
     <use xlink:href="#mb2ec83cfad" x="189.99253" y="82.297918" style="fill: #1f77b4; stroke: #1f77b4"/>
     <use xlink:href="#mb2ec83cfad" x="205.296353" y="55.79092" style="fill: #1f77b4; stroke: #1f77b4"/>
     <use xlink:href="#mb2ec83cfad" x="159.384885" y="188.32591" style="fill: #1f77b4; stroke: #1f77b4"/>
     <use xlink:href="#mb2ec83cfad" x="174.688708" y="161.818912" style="fill: #1f77b4; stroke: #1f77b4"/>
     <use xlink:href="#mb2ec83cfad" x="189.99253" y="135.311914" style="fill: #1f77b4; stroke: #1f77b4"/>
     <use xlink:href="#mb2ec83cfad" x="205.296353" y="108.804916" style="fill: #1f77b4; stroke: #1f77b4"/>
     <use xlink:href="#mb2ec83cfad" x="220.600175" y="82.297918" style="fill: #1f77b4; stroke: #1f77b4"/>
     <use xlink:href="#mb2ec83cfad" x="235.903998" y="55.79092" style="fill: #1f77b4; stroke: #1f77b4"/>
     <use xlink:href="#mb2ec83cfad" x="159.384885" y="241.339906" style="fill: #1f77b4; stroke: #1f77b4"/>
     <use xlink:href="#mb2ec83cfad" x="174.688708" y="214.832908" style="fill: #1f77b4; stroke: #1f77b4"/>
     <use xlink:href="#mb2ec83cfad" x="189.99253" y="188.32591" style="fill: #1f77b4; stroke: #1f77b4"/>
     <use xlink:href="#mb2ec83cfad" x="205.296353" y="161.818912" style="fill: #1f77b4; stroke: #1f77b4"/>
     <use xlink:href="#mb2ec83cfad" x="220.600175" y="135.311914" style="fill: #1f77b4; stroke: #1f77b4"/>
     <use xlink:href="#mb2ec83cfad" x="235.903998" y="108.804916" style="fill: #1f77b4; stroke: #1f77b4"/>
     <use xlink:href="#mb2ec83cfad" x="251.20782" y="82.297918" style="fill: #1f77b4; stroke: #1f77b4"/>
     <use xlink:href="#mb2ec83cfad" x="266.511642" y="55.79092" style="fill: #1f77b4; stroke: #1f77b4"/>
     <use xlink:href="#mb2ec83cfad" x="189.99253" y="241.339906" style="fill: #1f77b4; stroke: #1f77b4"/>
     <use xlink:href="#mb2ec83cfad" x="205.296353" y="214.832908" style="fill: #1f77b4; stroke: #1f77b4"/>
     <use xlink:href="#mb2ec83cfad" x="220.600175" y="188.32591" style="fill: #1f77b4; stroke: #1f77b4"/>
     <use xlink:href="#mb2ec83cfad" x="235.903998" y="161.818912" style="fill: #1f77b4; stroke: #1f77b4"/>
     <use xlink:href="#mb2ec83cfad" x="251.20782" y="135.311914" style="fill: #1f77b4; stroke: #1f77b4"/>
     <use xlink:href="#mb2ec83cfad" x="266.511642" y="108.804916" style="fill: #1f77b4; stroke: #1f77b4"/>
     <use xlink:href="#mb2ec83cfad" x="281.815465" y="82.297918" style="fill: #1f77b4; stroke: #1f77b4"/>
     <use xlink:href="#mb2ec83cfad" x="297.119287" y="55.79092" style="fill: #1f77b4; stroke: #1f77b4"/>
     <use xlink:href="#mb2ec83cfad" x="220.600175" y="241.339906" style="fill: #1f77b4; stroke: #1f77b4"/>
     <use xlink:href="#mb2ec83cfad" x="235.903998" y="214.832908" style="fill: #1f77b4; stroke: #1f77b4"/>
     <use xlink:href="#mb2ec83cfad" x="251.20782" y="188.32591" style="fill: #1f77b4; stroke: #1f77b4"/>
     <use xlink:href="#mb2ec83cfad" x="266.511642" y="161.818912" style="fill: #1f77b4; stroke: #1f77b4"/>
     <use xlink:href="#mb2ec83cfad" x="281.815465" y="135.311914" style="fill: #1f77b4; stroke: #1f77b4"/>
     <use xlink:href="#mb2ec83cfad" x="297.119287" y="108.804916" style="fill: #1f77b4; stroke: #1f77b4"/>
     <use xlink:href="#mb2ec83cfad" x="312.42311" y="82.297918" style="fill: #1f77b4; stroke: #1f77b4"/>
     <use xlink:href="#mb2ec83cfad" x="327.726932" y="55.79092" style="fill: #1f77b4; stroke: #1f77b4"/>
     <use xlink:href="#mb2ec83cfad" x="251.20782" y="241.339906" style="fill: #1f77b4; stroke: #1f77b4"/>
     <use xlink:href="#mb2ec83cfad" x="266.511642" y="214.832908" style="fill: #1f77b4; stroke: #1f77b4"/>
     <use xlink:href="#mb2ec83cfad" x="281.815465" y="188.32591" style="fill: #1f77b4; stroke: #1f77b4"/>
     <use xlink:href="#mb2ec83cfad" x="297.119287" y="161.818912" style="fill: #1f77b4; stroke: #1f77b4"/>
     <use xlink:href="#mb2ec83cfad" x="312.42311" y="135.311914" style="fill: #1f77b4; stroke: #1f77b4"/>
     <use xlink:href="#mb2ec83cfad" x="327.726932" y="108.804916" style="fill: #1f77b4; stroke: #1f77b4"/>
     <use xlink:href="#mb2ec83cfad" x="343.030755" y="82.297918" style="fill: #1f77b4; stroke: #1f77b4"/>
     <use xlink:href="#mb2ec83cfad" x="281.815465" y="241.339906" style="fill: #1f77b4; stroke: #1f77b4"/>
     <use xlink:href="#mb2ec83cfad" x="297.119287" y="214.832908" style="fill: #1f77b4; stroke: #1f77b4"/>
     <use xlink:href="#mb2ec83cfad" x="312.42311" y="188.32591" style="fill: #1f77b4; stroke: #1f77b4"/>
     <use xlink:href="#mb2ec83cfad" x="327.726932" y="161.818912" style="fill: #1f77b4; stroke: #1f77b4"/>
     <use xlink:href="#mb2ec83cfad" x="343.030755" y="135.311914" style="fill: #1f77b4; stroke: #1f77b4"/>
     <use xlink:href="#mb2ec83cfad" x="312.42311" y="241.339906" style="fill: #1f77b4; stroke: #1f77b4"/>
     <use xlink:href="#mb2ec83cfad" x="327.726932" y="214.832908" style="fill: #1f77b4; stroke: #1f77b4"/>
     <use xlink:href="#mb2ec83cfad" x="343.030755" y="188.32591" style="fill: #1f77b4; stroke: #1f77b4"/>
     <use xlink:href="#mb2ec83cfad" x="343.030755" y="241.339906" style="fill: #1f77b4; stroke: #1f77b4"/>
    </g>
   </g>
   <g id="line2d_12">
    <defs>
     <path id="m26794ec0b9" d="M 0 2 
C 0.530406 2 1.03916 1.789267 1.414214 1.414214 
C 1.789267 1.03916 2 0.530406 2 0 
C 2 -0.530406 1.789267 -1.03916 1.414214 -1.414214 
C 1.03916 -1.789267 0.530406 -2 0 -2 
C -0.530406 -2 -1.03916 -1.789267 -1.414214 -1.414214 
C -1.789267 -1.03916 -2 -0.530406 -2 0 
C -2 0.530406 -1.789267 1.03916 -1.414214 1.414214 
C -1.03916 1.789267 -0.530406 2 0 2 
z
" style="stroke: #1f77b4; stroke-opacity: 0.5"/>
    </defs>
    <g clip-path="url(#p325d855c99)">
     <use xlink:href="#m26794ec0b9" x="159.384885" y="64.626586" style="fill: #1f77b4; fill-opacity: 0.5; stroke: #1f77b4; stroke-opacity: 0.5"/>
     <use xlink:href="#m26794ec0b9" x="159.384885" y="117.640582" style="fill: #1f77b4; fill-opacity: 0.5; stroke: #1f77b4; stroke-opacity: 0.5"/>
     <use xlink:href="#m26794ec0b9" x="174.688708" y="91.133584" style="fill: #1f77b4; fill-opacity: 0.5; stroke: #1f77b4; stroke-opacity: 0.5"/>
     <use xlink:href="#m26794ec0b9" x="189.99253" y="64.626586" style="fill: #1f77b4; fill-opacity: 0.5; stroke: #1f77b4; stroke-opacity: 0.5"/>
     <use xlink:href="#m26794ec0b9" x="159.384885" y="170.654578" style="fill: #1f77b4; fill-opacity: 0.5; stroke: #1f77b4; stroke-opacity: 0.5"/>
     <use xlink:href="#m26794ec0b9" x="174.688708" y="144.14758" style="fill: #1f77b4; fill-opacity: 0.5; stroke: #1f77b4; stroke-opacity: 0.5"/>
     <use xlink:href="#m26794ec0b9" x="189.99253" y="117.640582" style="fill: #1f77b4; fill-opacity: 0.5; stroke: #1f77b4; stroke-opacity: 0.5"/>
     <use xlink:href="#m26794ec0b9" x="205.296353" y="91.133584" style="fill: #1f77b4; fill-opacity: 0.5; stroke: #1f77b4; stroke-opacity: 0.5"/>
     <use xlink:href="#m26794ec0b9" x="220.600175" y="64.626586" style="fill: #1f77b4; fill-opacity: 0.5; stroke: #1f77b4; stroke-opacity: 0.5"/>
     <use xlink:href="#m26794ec0b9" x="159.384885" y="223.668574" style="fill: #1f77b4; fill-opacity: 0.5; stroke: #1f77b4; stroke-opacity: 0.5"/>
     <use xlink:href="#m26794ec0b9" x="174.688708" y="197.161576" style="fill: #1f77b4; fill-opacity: 0.5; stroke: #1f77b4; stroke-opacity: 0.5"/>
     <use xlink:href="#m26794ec0b9" x="189.99253" y="170.654578" style="fill: #1f77b4; fill-opacity: 0.5; stroke: #1f77b4; stroke-opacity: 0.5"/>
     <use xlink:href="#m26794ec0b9" x="205.296353" y="144.14758" style="fill: #1f77b4; fill-opacity: 0.5; stroke: #1f77b4; stroke-opacity: 0.5"/>
     <use xlink:href="#m26794ec0b9" x="220.600175" y="117.640582" style="fill: #1f77b4; fill-opacity: 0.5; stroke: #1f77b4; stroke-opacity: 0.5"/>
     <use xlink:href="#m26794ec0b9" x="235.903998" y="91.133584" style="fill: #1f77b4; fill-opacity: 0.5; stroke: #1f77b4; stroke-opacity: 0.5"/>
     <use xlink:href="#m26794ec0b9" x="251.20782" y="64.626586" style="fill: #1f77b4; fill-opacity: 0.5; stroke: #1f77b4; stroke-opacity: 0.5"/>
     <use xlink:href="#m26794ec0b9" x="174.688708" y="250.175572" style="fill: #1f77b4; fill-opacity: 0.5; stroke: #1f77b4; stroke-opacity: 0.5"/>
     <use xlink:href="#m26794ec0b9" x="189.99253" y="223.668574" style="fill: #1f77b4; fill-opacity: 0.5; stroke: #1f77b4; stroke-opacity: 0.5"/>
     <use xlink:href="#m26794ec0b9" x="205.296353" y="197.161576" style="fill: #1f77b4; fill-opacity: 0.5; stroke: #1f77b4; stroke-opacity: 0.5"/>
     <use xlink:href="#m26794ec0b9" x="220.600175" y="170.654578" style="fill: #1f77b4; fill-opacity: 0.5; stroke: #1f77b4; stroke-opacity: 0.5"/>
     <use xlink:href="#m26794ec0b9" x="235.903998" y="144.14758" style="fill: #1f77b4; fill-opacity: 0.5; stroke: #1f77b4; stroke-opacity: 0.5"/>
     <use xlink:href="#m26794ec0b9" x="251.20782" y="117.640582" style="fill: #1f77b4; fill-opacity: 0.5; stroke: #1f77b4; stroke-opacity: 0.5"/>
     <use xlink:href="#m26794ec0b9" x="266.511642" y="91.133584" style="fill: #1f77b4; fill-opacity: 0.5; stroke: #1f77b4; stroke-opacity: 0.5"/>
     <use xlink:href="#m26794ec0b9" x="281.815465" y="64.626586" style="fill: #1f77b4; fill-opacity: 0.5; stroke: #1f77b4; stroke-opacity: 0.5"/>
     <use xlink:href="#m26794ec0b9" x="205.296353" y="250.175572" style="fill: #1f77b4; fill-opacity: 0.5; stroke: #1f77b4; stroke-opacity: 0.5"/>
     <use xlink:href="#m26794ec0b9" x="220.600175" y="223.668574" style="fill: #1f77b4; fill-opacity: 0.5; stroke: #1f77b4; stroke-opacity: 0.5"/>
     <use xlink:href="#m26794ec0b9" x="235.903998" y="197.161576" style="fill: #1f77b4; fill-opacity: 0.5; stroke: #1f77b4; stroke-opacity: 0.5"/>
     <use xlink:href="#m26794ec0b9" x="251.20782" y="170.654578" style="fill: #1f77b4; fill-opacity: 0.5; stroke: #1f77b4; stroke-opacity: 0.5"/>
     <use xlink:href="#m26794ec0b9" x="266.511642" y="144.14758" style="fill: #1f77b4; fill-opacity: 0.5; stroke: #1f77b4; stroke-opacity: 0.5"/>
     <use xlink:href="#m26794ec0b9" x="281.815465" y="117.640582" style="fill: #1f77b4; fill-opacity: 0.5; stroke: #1f77b4; stroke-opacity: 0.5"/>
     <use xlink:href="#m26794ec0b9" x="297.119287" y="91.133584" style="fill: #1f77b4; fill-opacity: 0.5; stroke: #1f77b4; stroke-opacity: 0.5"/>
     <use xlink:href="#m26794ec0b9" x="312.42311" y="64.626586" style="fill: #1f77b4; fill-opacity: 0.5; stroke: #1f77b4; stroke-opacity: 0.5"/>
     <use xlink:href="#m26794ec0b9" x="235.903998" y="250.175572" style="fill: #1f77b4; fill-opacity: 0.5; stroke: #1f77b4; stroke-opacity: 0.5"/>
     <use xlink:href="#m26794ec0b9" x="251.20782" y="223.668574" style="fill: #1f77b4; fill-opacity: 0.5; stroke: #1f77b4; stroke-opacity: 0.5"/>
     <use xlink:href="#m26794ec0b9" x="266.511642" y="197.161576" style="fill: #1f77b4; fill-opacity: 0.5; stroke: #1f77b4; stroke-opacity: 0.5"/>
     <use xlink:href="#m26794ec0b9" x="281.815465" y="170.654578" style="fill: #1f77b4; fill-opacity: 0.5; stroke: #1f77b4; stroke-opacity: 0.5"/>
     <use xlink:href="#m26794ec0b9" x="297.119287" y="144.14758" style="fill: #1f77b4; fill-opacity: 0.5; stroke: #1f77b4; stroke-opacity: 0.5"/>
     <use xlink:href="#m26794ec0b9" x="312.42311" y="117.640582" style="fill: #1f77b4; fill-opacity: 0.5; stroke: #1f77b4; stroke-opacity: 0.5"/>
     <use xlink:href="#m26794ec0b9" x="327.726932" y="91.133584" style="fill: #1f77b4; fill-opacity: 0.5; stroke: #1f77b4; stroke-opacity: 0.5"/>
     <use xlink:href="#m26794ec0b9" x="343.030755" y="64.626586" style="fill: #1f77b4; fill-opacity: 0.5; stroke: #1f77b4; stroke-opacity: 0.5"/>
     <use xlink:href="#m26794ec0b9" x="266.511642" y="250.175572" style="fill: #1f77b4; fill-opacity: 0.5; stroke: #1f77b4; stroke-opacity: 0.5"/>
     <use xlink:href="#m26794ec0b9" x="281.815465" y="223.668574" style="fill: #1f77b4; fill-opacity: 0.5; stroke: #1f77b4; stroke-opacity: 0.5"/>
     <use xlink:href="#m26794ec0b9" x="297.119287" y="197.161576" style="fill: #1f77b4; fill-opacity: 0.5; stroke: #1f77b4; stroke-opacity: 0.5"/>
     <use xlink:href="#m26794ec0b9" x="312.42311" y="170.654578" style="fill: #1f77b4; fill-opacity: 0.5; stroke: #1f77b4; stroke-opacity: 0.5"/>
     <use xlink:href="#m26794ec0b9" x="327.726932" y="144.14758" style="fill: #1f77b4; fill-opacity: 0.5; stroke: #1f77b4; stroke-opacity: 0.5"/>
     <use xlink:href="#m26794ec0b9" x="343.030755" y="117.640582" style="fill: #1f77b4; fill-opacity: 0.5; stroke: #1f77b4; stroke-opacity: 0.5"/>
     <use xlink:href="#m26794ec0b9" x="297.119287" y="250.175572" style="fill: #1f77b4; fill-opacity: 0.5; stroke: #1f77b4; stroke-opacity: 0.5"/>
     <use xlink:href="#m26794ec0b9" x="312.42311" y="223.668574" style="fill: #1f77b4; fill-opacity: 0.5; stroke: #1f77b4; stroke-opacity: 0.5"/>
     <use xlink:href="#m26794ec0b9" x="327.726932" y="197.161576" style="fill: #1f77b4; fill-opacity: 0.5; stroke: #1f77b4; stroke-opacity: 0.5"/>
     <use xlink:href="#m26794ec0b9" x="343.030755" y="170.654578" style="fill: #1f77b4; fill-opacity: 0.5; stroke: #1f77b4; stroke-opacity: 0.5"/>
     <use xlink:href="#m26794ec0b9" x="327.726932" y="250.175572" style="fill: #1f77b4; fill-opacity: 0.5; stroke: #1f77b4; stroke-opacity: 0.5"/>
     <use xlink:href="#m26794ec0b9" x="343.030755" y="223.668574" style="fill: #1f77b4; fill-opacity: 0.5; stroke: #1f77b4; stroke-opacity: 0.5"/>
    </g>
   </g>
   <g id="line2d_13">
    <defs>
     <path id="med4b7f331e" d="M 0 4 
C 1.060812 4 2.078319 3.578535 2.828427 2.828427 
C 3.578535 2.078319 4 1.060812 4 0 
C 4 -1.060812 3.578535 -2.078319 2.828427 -2.828427 
C 2.078319 -3.578535 1.060812 -4 0 -4 
C -1.060812 -4 -2.078319 -3.578535 -2.828427 -2.828427 
C -3.578535 -2.078319 -4 -1.060812 -4 0 
C -4 1.060812 -3.578535 2.078319 -2.828427 2.828427 
C -2.078319 3.578535 -1.060812 4 0 4 
z
" style="stroke: #2ca02c"/>
    </defs>
    <g clip-path="url(#p325d855c99)">
     <use xlink:href="#med4b7f331e" x="159.384885" y="46.955254" style="fill: #2ca02c; stroke: #2ca02c"/>
     <use xlink:href="#med4b7f331e" x="159.384885" y="99.96925" style="fill: #2ca02c; stroke: #2ca02c"/>
     <use xlink:href="#med4b7f331e" x="205.296353" y="73.462252" style="fill: #2ca02c; stroke: #2ca02c"/>
     <use xlink:href="#med4b7f331e" x="251.20782" y="46.955254" style="fill: #2ca02c; stroke: #2ca02c"/>
     <use xlink:href="#med4b7f331e" x="159.384885" y="152.983246" style="fill: #2ca02c; stroke: #2ca02c"/>
     <use xlink:href="#med4b7f331e" x="205.296353" y="126.476248" style="fill: #2ca02c; stroke: #2ca02c"/>
     <use xlink:href="#med4b7f331e" x="251.20782" y="99.96925" style="fill: #2ca02c; stroke: #2ca02c"/>
     <use xlink:href="#med4b7f331e" x="297.119287" y="73.462252" style="fill: #2ca02c; stroke: #2ca02c"/>
     <use xlink:href="#med4b7f331e" x="343.030755" y="46.955254" style="fill: #2ca02c; stroke: #2ca02c"/>
     <use xlink:href="#med4b7f331e" x="159.384885" y="205.997242" style="fill: #2ca02c; stroke: #2ca02c"/>
     <use xlink:href="#med4b7f331e" x="205.296353" y="179.490244" style="fill: #2ca02c; stroke: #2ca02c"/>
     <use xlink:href="#med4b7f331e" x="251.20782" y="152.983246" style="fill: #2ca02c; stroke: #2ca02c"/>
     <use xlink:href="#med4b7f331e" x="297.119287" y="126.476248" style="fill: #2ca02c; stroke: #2ca02c"/>
     <use xlink:href="#med4b7f331e" x="343.030755" y="99.96925" style="fill: #2ca02c; stroke: #2ca02c"/>
     <use xlink:href="#med4b7f331e" x="159.384885" y="259.011238" style="fill: #2ca02c; stroke: #2ca02c"/>
     <use xlink:href="#med4b7f331e" x="205.296353" y="232.50424" style="fill: #2ca02c; stroke: #2ca02c"/>
     <use xlink:href="#med4b7f331e" x="251.20782" y="205.997242" style="fill: #2ca02c; stroke: #2ca02c"/>
     <use xlink:href="#med4b7f331e" x="297.119287" y="179.490244" style="fill: #2ca02c; stroke: #2ca02c"/>
     <use xlink:href="#med4b7f331e" x="343.030755" y="152.983246" style="fill: #2ca02c; stroke: #2ca02c"/>
     <use xlink:href="#med4b7f331e" x="251.20782" y="259.011238" style="fill: #2ca02c; stroke: #2ca02c"/>
     <use xlink:href="#med4b7f331e" x="297.119287" y="232.50424" style="fill: #2ca02c; stroke: #2ca02c"/>
     <use xlink:href="#med4b7f331e" x="343.030755" y="205.997242" style="fill: #2ca02c; stroke: #2ca02c"/>
     <use xlink:href="#med4b7f331e" x="343.030755" y="259.011238" style="fill: #2ca02c; stroke: #2ca02c"/>
    </g>
   </g>
   <g id="patch_4">
    <path d="M 150.202592 269.614037 
L 150.202592 36.352454 
" style="fill: none; stroke: #000000; stroke-width: 0.8; stroke-linejoin: miter; stroke-linecap: square"/>
   </g>
   <g id="patch_5">
    <path d="M 352.213048 269.614037 
L 352.213048 36.352454 
" style="fill: none; stroke: #000000; stroke-width: 0.8; stroke-linejoin: miter; stroke-linecap: square"/>
   </g>
   <g id="patch_6">
    <path d="M 150.202592 269.614037 
L 352.213048 269.614037 
" style="fill: none; stroke: #000000; stroke-width: 0.8; stroke-linejoin: miter; stroke-linecap: square"/>
   </g>
   <g id="patch_7">
    <path d="M 150.202592 36.352454 
L 352.213048 36.352454 
" style="fill: none; stroke: #000000; stroke-width: 0.8; stroke-linejoin: miter; stroke-linecap: square"/>
   </g>
  </g>
 </g>
 <defs>
  <clipPath id="p325d855c99">
   <rect x="150.202592" y="36.352454" width="202.010456" height="233.261582"/>
  </clipPath>
 </defs>
</svg>
